<?xml version="1.0" encoding="utf-8"?>
<!-- Generator: Adobe Illustrator 25.2.3, SVG Export Plug-In . SVG Version: 6.00 Build 0)  -->
<svg version="1.1" id="Layer_1" xmlns="http://www.w3.org/2000/svg" xmlns:xlink="http://www.w3.org/1999/xlink" x="0px" y="0px"
	 viewBox="0 0 2213.24 364.95" style="enable-background:new 0 0 2213.24 364.95;" xml:space="preserve">
<g>
	<g>
		<path d="M484.39,321.62c-8.63,0-14.45-2.21-17.48-6.64c-3.03-4.42-4.54-9.32-4.54-14.68V64.66c0-5.36,1.51-10.19,4.54-14.51
			c3.03-4.31,8.85-6.47,17.48-6.47h121.66c8.62,0,13.17,5.83,13.63,17.48c0.46,11.89-4.08,17.83-13.63,17.83H503.62v207.32h108.73
			c8.62,0,13.05,5.71,13.29,17.13c0.46,12.12-3.97,18.18-13.29,18.18H484.39z M593.12,176.88c0,8.16-2.86,15.03-8.57,20.63
			c-5.71,5.59-12.65,8.39-20.8,8.39c-7.93,0-14.68-2.8-20.28-8.39s-8.39-12.47-8.39-20.63c0-8.16,2.8-15.03,8.39-20.63
			s12.35-8.39,20.28-8.39c8.16,0,15.09,2.8,20.8,8.39C590.26,161.85,593.12,168.73,593.12,176.88z"/>
		<path d="M713.03,321.27c-7.23,0-14.1-0.99-20.63-2.97c-6.53-1.98-12.82-4.83-18.88-8.57v0.35c-11.42-7.22-17.13-20.51-17.13-39.86
			V253.1c0-9.55,1.69-17.88,5.07-25c3.38-7.11,8.1-12.76,14.16-16.96h-0.35c5.82-3.96,12-6.93,18.53-8.92
			c6.52-1.98,12.82-2.97,18.88-2.97h77.26v-32.51c0-5.82-1.81-11.13-5.42-15.91c-3.62-4.77-9.73-7.17-18.35-7.17h-40.9
			c-8.86,0-14.98,2.16-18.35,6.47c-3.38,4.32-5.07,9.38-5.07,15.21v2.8c0,12.12-6.53,18.18-19.58,18.18
			c-13.06,0-19.58-6.06-19.58-18.18V165c0-9.55,1.69-17.59,5.07-24.12c3.38-6.52,7.98-12,13.81-16.43h-0.35
			c6.06-3.96,12.41-7.22,19.05-9.79c6.64-2.56,12.99-3.85,19.05-3.85h53.14c5.82,0,12.06,1.28,18.7,3.85
			c6.64,2.57,12.88,5.83,18.7,9.79h-0.35c6.06,4.43,10.72,10.2,13.98,17.3c3.26,7.11,4.89,15.33,4.89,24.65v140.19
			c0,11.19-6.41,16.78-19.23,16.78c-2.57,0-4.95-0.12-7.17-0.35c-2.22-0.24-4.2-0.87-5.94-1.92c-1.75-1.05-3.15-2.56-4.2-4.54
			c-1.05-1.98-1.57-4.6-1.57-7.87l-0.35-76.56h-70.62c-5.13,0-9.09,0.58-11.89,1.75c-2.8,1.17-5.01,3.03-6.64,5.59
			c-1.87,3.97-3.21,7.05-4.02,9.26c-0.82,2.22-1.22,4.72-1.22,7.52v13.63c0,6.06,1.8,10.66,5.42,13.81
			c3.61,3.15,9.84,4.72,18.7,4.72h39.16c8.62,0,12.94,5.48,12.94,16.43c0,4.67-1.05,8.57-3.15,11.71s-5.36,4.72-9.79,4.72H713.03z"
			/>
		<path d="M911.25,306.59c0,11.19-6.41,16.78-19.23,16.78c-13.28,0-19.93-5.59-19.93-16.78V161.85c0-19.11,5.71-32.39,17.13-39.85
			c11.42-7.46,24.59-11.19,39.51-11.19h39.85c8.62,0,12.94,5.48,12.94,16.43c0.46,10.96-3.85,16.43-12.94,16.43h-37.06
			c-8.39,0-13.87,1.63-16.43,4.89c-2.57,3.27-3.85,7.81-3.85,13.63V306.59z"/>
		<path d="M1057.03,143.67v127.26c0,6.06,1.28,10.72,3.85,13.98c2.56,3.27,8.04,4.89,16.43,4.89h9.09c9.09,0,13.4,5.36,12.94,16.08
			c0,10.96-4.32,16.43-12.94,16.43h-11.54c-7.46,0-14.45-0.99-20.98-2.97c-6.53-1.98-12.82-4.83-18.88-8.57v0.35
			c-11.42-7.46-17.13-20.74-17.13-39.86V143.67h-13.63c-8.39,0-12.82-5.47-13.29-16.43c0-10.95,4.42-16.43,13.29-16.43h13.63V73.4
			c0-11.19,6.64-16.78,19.93-16.78c12.82,0,19.23,5.59,19.23,16.78v37.41h29.02c9.09,0,13.4,5.48,12.94,16.43
			c0,10.96-4.32,16.43-12.94,16.43H1057.03z"/>
		<path d="M1168.2,306.59c0,11.19-6.41,16.78-19.23,16.78c-12.82,0-19.23-5.59-19.23-16.78V58.37c0-11.19,6.41-16.78,19.23-16.78
			c12.82,0,19.23,5.59,19.23,16.78v52.44h73.77c11.89,0,24.24,4.43,37.06,13.29c12.59,8.86,18.88,22.84,18.88,41.95v140.54
			c0,11.19-6.41,16.78-19.23,16.78c-12.82,0-19.23-5.59-19.23-16.78v-137.4c0-6.06-1.87-11.89-5.59-17.48l0.35,0.35
			c-3.03-5.59-9.21-8.39-18.53-8.39h-67.47V306.59z"/>
		<path d="M1479.7,161.5c6.06,0,12.35,1.28,18.88,3.85c6.52,2.57,12.82,5.94,18.88,10.14h-0.35c6.06,4.2,10.72,9.91,13.98,17.13
			c3.26,7.23,4.89,15.5,4.89,24.82v47.9c0,18.88-6.29,32.98-18.88,42.3c-6.06,4.43-12.3,7.87-18.7,10.31
			c-6.41,2.45-12.65,3.67-18.7,3.67h-76.21c-6.06,0-12.3-1.22-18.7-3.67c-6.41-2.45-12.65-5.88-18.7-10.31
			c-12.59-9.32-18.88-23.42-18.88-42.3v-23.07c0-10.95,6.87-16.43,20.63-16.43c13.98,0,20.98,5.48,20.98,16.43v20.28
			c0,6.06,1.75,11.54,5.24,16.43s9.55,7.34,18.18,7.34h58.73c8.62,0,14.68-2.45,18.18-7.34s5.24-10.37,5.24-16.43v-42.3
			c0-5.82-1.75-11.24-5.24-16.26c-3.5-5.01-9.56-7.52-18.18-7.52h-67.47c-12.12,0-24.59-4.42-37.41-13.29
			c-12.59-9.79-18.88-23.89-18.88-42.3v-41.6c0-9.32,1.63-17.54,4.89-24.65c3.26-7.11,7.92-12.88,13.98-17.31h-0.35
			c6.06-3.96,12.35-7.22,18.88-9.79c6.52-2.56,12.82-3.85,18.88-3.85h76.21c6.06,0,12.35,1.28,18.88,3.85
			c6.52,2.57,12.82,5.83,18.88,9.79h-0.35c6.06,4.43,10.72,10.2,13.98,17.31c3.26,7.11,4.89,15.33,4.89,24.65v20.63
			c0,10.96-6.99,16.43-20.98,16.43c-13.75,0-20.63-5.47-20.63-16.43v-17.48c0-5.82-1.75-11.19-5.24-16.08s-9.56-7.34-18.18-7.34
			h-58.73c-8.63,0-14.68,2.45-18.18,7.34s-5.24,10.26-5.24,16.08v35.66c0,6.06,1.75,11.48,5.24,16.26c3.5,4.78,9.55,7.17,18.18,7.17
			H1479.7z"/>
		<path d="M1755.89,265.68c0,19.11-6.29,33.21-18.88,42.3c-12.36,8.86-24.71,13.29-37.06,13.29h-58.73
			c-12.36,0-24.36-4.42-36.01-13.29c-5.59-4.66-9.91-10.54-12.94-17.66c-3.03-7.11-4.54-15.32-4.54-24.65v-99.64
			c0-18.88,5.82-32.86,17.48-41.95c5.82-4.2,11.83-7.52,18-9.96c6.17-2.45,12.18-3.67,18-3.67h58.73c5.59,0,11.77,1.11,18.53,3.32
			c6.76,2.22,13.05,5.19,18.88,8.92c5.59,3.97,10.08,9.44,13.46,16.43c3.38,6.99,5.07,15.27,5.07,24.82v17.48
			c0,11.19-6.41,16.78-19.23,16.78c-12.82,0-19.23-5.59-19.23-16.78v-15.03c0-5.82-1.81-11.13-5.42-15.91
			c-3.62-4.77-9.73-7.17-18.35-7.17h-43.7c-8.63,0-14.74,2.39-18.35,7.17c-3.62,4.78-5.42,10.08-5.42,15.91v98.94
			c0,5.59,1.8,10.84,5.42,15.73c3.61,4.89,9.73,7.34,18.35,7.34h43.7c8.62,0,14.74-2.45,18.35-7.34c3.61-4.89,5.42-10.14,5.42-15.73
			v-16.08c0-10.95,6.41-16.43,19.23-16.43c12.82,0,19.23,5.48,19.23,16.43V265.68z"/>
		<path d="M1852.37,321.27c-7.23,0-14.1-0.99-20.63-2.97c-6.53-1.98-12.82-4.83-18.88-8.57v0.35
			c-11.42-7.22-17.13-20.51-17.13-39.86V253.1c0-9.55,1.69-17.88,5.07-25c3.38-7.11,8.1-12.76,14.16-16.96h-0.35
			c5.82-3.96,12-6.93,18.53-8.92c6.52-1.98,12.82-2.97,18.88-2.97h77.26v-32.51c0-5.82-1.81-11.13-5.42-15.91
			c-3.62-4.77-9.73-7.17-18.35-7.17h-40.9c-8.86,0-14.98,2.16-18.35,6.47c-3.38,4.32-5.07,9.38-5.07,15.21v2.8
			c0,12.12-6.53,18.18-19.58,18.18c-13.06,0-19.58-6.06-19.58-18.18V165c0-9.55,1.69-17.59,5.07-24.12
			c3.38-6.52,7.98-12,13.81-16.43h-0.35c6.06-3.96,12.41-7.22,19.05-9.79c6.64-2.56,12.99-3.85,19.05-3.85h53.14
			c5.82,0,12.06,1.28,18.7,3.85c6.64,2.57,12.88,5.83,18.7,9.79h-0.35c6.06,4.43,10.72,10.2,13.98,17.3
			c3.26,7.11,4.89,15.33,4.89,24.65v140.19c0,11.19-6.41,16.78-19.23,16.78c-2.57,0-4.95-0.12-7.17-0.35
			c-2.22-0.24-4.2-0.87-5.94-1.92c-1.75-1.05-3.15-2.56-4.2-4.54c-1.05-1.98-1.57-4.6-1.57-7.87l-0.35-76.56h-70.62
			c-5.13,0-9.09,0.58-11.89,1.75c-2.8,1.17-5.01,3.03-6.64,5.59c-1.87,3.97-3.21,7.05-4.02,9.26c-0.82,2.22-1.22,4.72-1.22,7.52
			v13.63c0,6.06,1.8,10.66,5.42,13.81c3.61,3.15,9.84,4.72,18.7,4.72h39.16c8.62,0,12.94,5.48,12.94,16.43
			c0,4.67-1.05,8.57-3.15,11.71s-5.36,4.72-9.79,4.72H1852.37z"/>
		<path d="M2051.3,306.59c0,11.19-6.41,16.78-19.23,16.78c-12.82,0-19.23-5.59-19.23-16.78V166.05c0-9.55,1.51-17.83,4.54-24.82
			c3.03-6.99,7.81-12.7,14.33-17.13c12.35-8.86,24.7-13.29,37.06-13.29h56.29c11.89,0,24.24,4.43,37.06,13.29
			c12.59,8.86,18.88,22.84,18.88,41.95v140.54c0,11.19-6.41,16.78-19.23,16.78c-12.82,0-19.23-5.59-19.23-16.78v-137.4
			c0-6.06-1.87-11.89-5.59-17.48l0.35,0.35c-3.03-5.59-9.21-8.39-18.53-8.39h-43.7c-9.56,0-15.85,2.8-18.88,8.39
			c-3.27,4.89-4.89,10.61-4.89,17.13V306.59z"/>
	</g>
	<g>
		<path d="M146.49,205.46c6.21,6.21,13.72,9.15,22.87,9.15h0.33c6.21,0,12.09-1.64,16.99-4.9c2.29-0.98,3.92-2.61,5.88-4.25
			c6.21-6.54,9.15-14.05,9.15-23.2c0-9.15-2.94-16.99-9.15-23.2c-6.53-6.21-14.05-9.48-22.87-9.48c-9.15,0-16.99,3.27-23.2,9.48
			c-6.53,6.21-9.8,14.05-9.8,23.2C136.69,191.41,139.96,198.93,146.49,205.46z"/>
		<path d="M206.58,304.37c-0.06,13.86,5.25,16.9,15.05,16.9h40.19h6.86h14.7c9.8,0,16.34-2.29,19.61-7.19
			c3.59-4.9,5.23-10.46,5.23-16.34v-16.01v-42.58c0-10.79-3.89-15.36-17.3-15.41c-12.94-0.05-17.78,5.55-17.78,15.36v47.05
			l-11.31,0.05h-40.19C210.85,286.21,206.63,290.96,206.58,304.37z"/>
		<path d="M49.14,217.78c-13.86-0.06-16.9,5.25-16.9,15.05v40.19v6.86v14.7c0,9.8,2.29,16.34,7.19,19.61
			c4.9,3.59,10.46,5.23,16.34,5.23h16.01h42.58c10.79,0,15.36-3.89,15.41-17.3c0.05-12.94-5.55-17.78-15.36-17.78H67.36l-0.05-11.31
			v-40.19C67.31,222.05,62.56,217.84,49.14,217.78z"/>
		<path d="M133.88,58.49c0.06-13.86-5.25-16.9-15.05-16.9H78.64h-6.86h-14.7c-9.8,0-16.34,2.29-19.61,7.19
			c-3.59,4.9-5.23,10.46-5.23,16.34v16.01v42.57c0,10.79,3.89,15.36,17.3,15.41c12.94,0.05,17.78-5.55,17.78-15.36V76.7l11.31-0.05
			h40.19C129.62,76.65,133.83,71.9,133.88,58.49z"/>
		<path d="M291.32,145.08c13.86,0.06,16.9-5.25,16.9-15.05V89.84v-6.86v-14.7c0-9.8-2.29-16.34-7.19-19.61
			c-4.9-3.59-10.46-5.23-16.34-5.23h-16.01h-42.57c-10.79,0-15.36,3.89-15.41,17.3c-0.05,12.94,5.55,17.78,15.36,17.78h47.05
			l0.05,11.31v40.19C273.16,140.81,277.9,145.02,291.32,145.08z"/>
	</g>
</g>
</svg>
